<?xml version="1.0" encoding="UTF-8" standalone="no"?>
<!-- Created with Inkscape (http://www.inkscape.org/) -->

<svg
   xmlns:dc="http://purl.org/dc/elements/1.1/"
   xmlns:cc="http://creativecommons.org/ns#"
   xmlns:rdf="http://www.w3.org/1999/02/22-rdf-syntax-ns#"
   xmlns:svg="http://www.w3.org/2000/svg"
   xmlns="http://www.w3.org/2000/svg"
   xmlns:sodipodi="http://sodipodi.sourceforge.net/DTD/sodipodi-0.dtd"
   xmlns:inkscape="http://www.inkscape.org/namespaces/inkscape"
   width="210mm"
   height="297mm"
   viewBox="0 0 744.09448819 1052.3622047"
   id="svg2"
   version="1.1"
   inkscape:version="0.91 r13725"
   sodipodi:docname="ruffy-logo.svg">
  <defs
     id="defs4" />
  <sodipodi:namedview
     id="base"
     pagecolor="#ffffff"
     bordercolor="#666666"
     borderopacity="1.0"
     inkscape:pageopacity="0.0"
     inkscape:pageshadow="2"
     inkscape:zoom="1.979899"
     inkscape:cx="369.0868"
     inkscape:cy="696.5379"
     inkscape:document-units="px"
     inkscape:current-layer="layer1"
     showgrid="false"
     inkscape:window-width="2560"
     inkscape:window-height="1347"
     inkscape:window-x="0"
     inkscape:window-y="23"
     inkscape:window-maximized="1" />
  <metadata
     id="metadata7">
    <rdf:RDF>
      <cc:Work
         rdf:about="">
        <dc:format>image/svg+xml</dc:format>
        <dc:type
           rdf:resource="http://purl.org/dc/dcmitype/StillImage" />
        <dc:title></dc:title>
      </cc:Work>
    </rdf:RDF>
  </metadata>
  <g
     inkscape:label="Layer 1"
     inkscape:groupmode="layer"
     id="layer1">
    <path
       style="fill:#000000;fill-rule:evenodd;stroke:#000000;stroke-width:1px;stroke-linecap:butt;stroke-linejoin:miter;stroke-opacity:1;fill-opacity:0.34285715"
       d="m 363.39286,331.82649 -98.92858,1.96429 c 0,0 -12.67857,-2.5 -14.46428,8.21428 -1.78571,10.71429 -1.78571,101.07143 -1.78571,101.07143 0,0 -2.5,8.92857 13.92857,9.28571 16.42857,0.35715 156.07143,-0.35714 156.07143,-0.35714 0,0 5.17574,-0.96943 6.42857,-7.67857 0,0 2.56531,-14.59514 0.35714,-38.03571 -2.32143,-24.64286 -12.54287,-62.66755 -15.71429,-67.85714 -1.96429,-3.2143 -3.03571,-5.89286 -9.28571,-6.60715 -5.3225,-0.60828 -36.60714,0 -36.60714,0 z"
       id="path4277"
       inkscape:connector-curvature="0"
       sodipodi:nodetypes="ccscscssssc" />
    <path
       style="fill:none;fill-rule:evenodd;stroke:#000000;stroke-width:1px;stroke-linecap:butt;stroke-linejoin:miter;stroke-opacity:1"
       d="m 425.71428,414.14792 14.28572,1.25 c 0,0 4.28572,-0.71429 4.64286,11.42857 0.35714,12.14286 -10e-6,15.53571 -2.85715,17.67857 -2.85714,2.14286 -17.85714,2.85715 -17.85714,2.85715 z"
       id="path4279"
       inkscape:connector-curvature="0"
       sodipodi:nodetypes="ccsscc" />
    <path
       style="fill:#ffffff;fill-rule:evenodd;stroke:#000000;stroke-width:1px;stroke-linecap:butt;stroke-linejoin:miter;stroke-opacity:1;fill-opacity:0.90952379"
       d="m 311.42857,381.46935 9.28572,34.10714 85.35714,-0.35714 -9.28571,-34.10715 z"
       id="path4281"
       inkscape:connector-curvature="0" />
    <ellipse
       style="opacity:1;fill:#ffffff;fill-opacity:0.90952379;stroke:#000000;stroke-width:1;stroke-linecap:round;stroke-linejoin:miter;stroke-miterlimit:4;stroke-dasharray:none;stroke-dashoffset:0;stroke-opacity:1"
       id="path4283"
       cx="291.42859"
       cy="-413.70148"
       rx="7.6785712"
       ry="5.9821429"
       transform="scale(1,-1)" />
    <ellipse
       transform="scale(1,-1)"
       ry="5.9821429"
       rx="7.6785712"
       cy="-391.73718"
       cx="284.28574"
       id="ellipse4308"
       style="opacity:1;fill:#ffffff;fill-opacity:0.90952379;stroke:#000000;stroke-width:1;stroke-linecap:round;stroke-linejoin:miter;stroke-miterlimit:4;stroke-dasharray:none;stroke-dashoffset:0;stroke-opacity:1" />
    <g
       id="g4272">
      <path
         sodipodi:nodetypes="czsccszsc"
         inkscape:connector-curvature="0"
         id="path4201"
         d="m 107.5,393.07649 c 5,-5.35714 0.22229,-8.85181 40.35714,-23.57143 40.13485,-14.71962 142.35608,-23.59344 198.92857,-22.14286 55.71429,1.42858 108.03046,3.1425 166.31345,18.51015 36.44668,12.95679 68.58368,25.07141 48.41607,32.07416 -6.42857,2.14285 -77.55182,-13.18915 -116.05603,-16.05349 -40.65471,-3.02432 -164.57633,-9.60014 -237.04006,0.18076 -72.46373,9.78089 -102.46492,23.369 -101.27628,13.85985 z"
         style="fill:#f3c218;fill-rule:evenodd;stroke:#000000;stroke-width:1px;stroke-linecap:butt;stroke-linejoin:miter;stroke-opacity:1;fill-opacity:1" />
      <path
         inkscape:connector-curvature="0"
         id="path4203"
         d="m 220.21326,323.2846 c 0,0 55.81092,-18.18274 123.23861,-16.66751 67.42768,1.51523 110.6117,16.66751 110.6117,16.66751 l 7.57614,25.00128 c 0,0 -19.95051,-9.84899 -128.28937,-7.57614 -108.33886,2.27284 -119.45054,11.61675 -119.45054,11.61675 0,0 -0.50507,-5.3033 6.31346,-29.04189 z"
         style="fill:#f31826;fill-rule:evenodd;stroke:#000000;stroke-width:1px;stroke-linecap:butt;stroke-linejoin:miter;stroke-opacity:1;fill-opacity:1" />
      <path
         sodipodi:nodetypes="cscsscc"
         inkscape:connector-curvature="0"
         id="path4205"
         d="m 225.01148,314.95085 c 0,0 34.34519,-74.75129 107.32871,-77.27667 72.98352,-2.52539 117.43023,74.49875 117.43023,74.49875 0,0 5.3033,7.57614 -5.05076,3.78807 -10.35407,-3.78807 -54.29571,-16.66752 -96.46957,-16.41498 -34.50204,0.20661 -56.69964,-3.83527 -122.22846,18.68782 z"
         style="fill:#f3c218;fill-rule:evenodd;stroke:#000000;stroke-width:1px;stroke-linecap:butt;stroke-linejoin:miter;stroke-opacity:1;fill-opacity:1" />
    </g>
  </g>
</svg>
